<?xml version="1.0" encoding="UTF-8" standalone="no"?>
<svg
   xmlns:dc="http://purl.org/dc/elements/1.1/"
   xmlns:cc="http://creativecommons.org/ns#"
   xmlns:rdf="http://www.w3.org/1999/02/22-rdf-syntax-ns#"
   xmlns:svg="http://www.w3.org/2000/svg"
   xmlns="http://www.w3.org/2000/svg"
   id="svg4"
   viewBox="0 0 15 15"
   version="1.1"
   enable-background="new 0 0 15 15">
  <metadata
     id="metadata10">
    <rdf:RDF>
      <cc:Work
         rdf:about="">
        <dc:format>image/svg+xml</dc:format>
        <dc:type
           rdf:resource="http://purl.org/dc/dcmitype/StillImage" />
        <dc:title></dc:title>
      </cc:Work>
    </rdf:RDF>
  </metadata>
  <defs
     id="defs8" />
  <g
     style="display:none"
     id="layer1">
    <path
       id="path2"
       d="M 10.1113,2 C 9.9989,2 9.6758,2.1465 9.6758,2.1465 L 6.3535,3.8262 C 5.9111,4.0024 5.7358,4.7081 6.002,5.0605 L 6.9727,6.4687 3.002,8.498 5,9.998 l 2.502,-1.5 2.5,1.5 1.002,-1.002 -3,-4 2.5566,-1.5293 C 11.0892,3.2005 11.004,2.7622 11.004,2.496 10.9999,2.2861 10.6437,2 10.1113,2 Z M 12.252,5 C 11.2847,5 10.5,5.7827 10.5,6.75 c 0,0.9673 0.7847,1.752 1.752,1.752 0.9673,0 1.75,-0.7847 1.75,-1.752 C 14.002,5.7827 13.2192,5 12.252,5 Z M 2.5,10 0,11.5 V 13 L 2.5,11.5 5,13 7.502,11.5 10.002,13 12,11.5 15,13 V 11.5 L 12,10 10.002,11.5 7.502,10 5,11.5 Z" />
  </g>
  <g
     style="display:inline"
     id="g821">
    <path
       id="path836"
       d="M 10.238347,5 C 9.7959475,5.1762 9.7150424,4.6424932 8.7756186,6.2343 L 7.6718525,9.2701271 1.5401355,11.5 5,11.498 7.502,11.5 l 2.5,-0.002 1.240347,-9.41e-4 C 10,8.7361368 9.5328161,7.3125962 10.507492,6.5034864 12.302968,6.5530879 14.10036,7.3785947 15.405483,7.4798728 16,7.2491034 11.779081,5.0196647 10.238347,5 Z" />
    <path
       style="stroke-width:0.85722446"
       id="path834"
       d="m 13,9 c -0.829193,0 -1.501857,0.6709496 -1.501857,1.500142 0,0.829193 0.672664,1.501858 1.501857,1.501858 0.829194,0 1.500143,-0.672665 1.500143,-1.501858 C 14.500143,9.6709496 13.829108,9 13,9 Z" />
    <path
       id="path819"
       d="M 0,12.5 V 14 h 15 v -1.5 z" />
    <path
       id="path819-3"
       d="M 0,1.5 V 3 H 15 V 1.5 Z"
       style="display:inline" />
  </g>
</svg>
