<?xml version="1.0" encoding="UTF-8"?>
<svg viewBox="0 0 123.55 123.54" xmlns="http://www.w3.org/2000/svg">
 <path d="m112.54 101.55c-2.148 0-4.195-0.484-6.031-1.32-1.875-0.852-4-1.367-6.219-1.367-2.227 0-4.352 0.516-6.227 1.367-1.836 0.836-3.883 1.32-6.031 1.32s-4.203-0.484-6.031-1.32c-1.906-0.852-4.031-1.367-6.227-1.367-2.219 0-4.344 0.516-6.227 1.367-1.828 0.836-3.906 1.32-6.031 1.32-2.148 0-4.195-0.484-6.047-1.32-1.883-0.852-4-1.367-6.203-1.367-2.219 0-4.344 0.516-6.227 1.367-1.828 0.836-3.906 1.32-6.055 1.32-2.117 0-4.195-0.484-6.023-1.32-1.883-0.852-4.008-1.367-6.227-1.367-2.203 0-4.32 0.516-6.203 1.367-1.859 0.836-3.906 1.32-6.055 1.32v-9.055c2.148 0 4.195-0.492 6.055-1.297 1.883-0.875 4-1.391 6.203-1.391 2.219 0 4.344 0.516 6.227 1.391 1.828 0.805 3.906 1.297 6.023 1.297 2.148 0 4.227-0.492 6.055-1.297 1.883-0.875 4.008-1.391 6.227-1.391 2.203 0 4.32 0.516 6.203 1.391 1.852 0.805 3.898 1.297 6.047 1.297 2.125 0 4.203-0.492 6.031-1.297 1.883-0.875 4.008-1.391 6.227-1.391 2.195 0 4.32 0.516 6.227 1.391 1.828 0.805 3.883 1.297 6.031 1.297s4.195-0.492 6.031-1.297c1.875-0.875 4-1.391 6.227-1.391 2.219 0 4.344 0.516 6.219 1.391 1.836 0.805 3.883 1.297 6.031 1.297v9.055z"/>
 <path d="m98.336 75.941c6.438 0 11.664-5.25 11.664-11.695s-5.227-11.672-11.664-11.672c-6.453 0-11.672 5.227-11.672 11.672s4.758 11.695 11.672 11.695z"/>
 <path d="m30.391 82.512c0.906 0.219 1.758 0.531 2.57 0.898 1.828 0.828 3.906 1.32 6.023 1.32 2.148 0 4.227-0.492 6.055-1.32 1.883-0.852 4.008-1.391 6.227-1.391 2.203 0 4.32 0.539 6.203 1.391 1.852 0.828 3.898 1.32 6.047 1.32 2.125 0 4.203-0.492 6.031-1.32 1.883-0.852 4.008-1.391 6.227-1.391 2.195 0 4.32 0.539 6.227 1.391 1.828 0.828 3.883 1.32 6.031 1.32 1.562 0 3.07-0.26601 4.492-0.71101l-19.462-35.124 22.633-4.133c3.32-0.633 5.734-3.242 5.734-6.586 0-3.688-3-6.641-6.664-6.641-0.266 0-0.508 0-0.758 0.023001l-34.961 6.367c-2.453 0.562-5.703 4.156-3.852 8.57 0.102 0.242 0.195 0.469 0.297 0.711l9.125 16.477-34.225 18.829z"/>
</svg>
